<svg width="18" height="19" viewBox="0 0 18 19" fill="none" xmlns="http://www.w3.org/2000/svg">
<g clip-path="url(#clip0_52_4505)">
<path d="M16.1999 15.7231L15.6374 14.8275C15.5249 14.6541 15.4687 14.4808 15.4687 14.2785V8.26909C15.4687 6.56449 14.7655 4.97546 13.4718 3.79091C12.4312 2.83749 11.0812 2.23076 9.64678 2.1152V1.53737C9.64678 1.19067 9.36553 0.872864 8.9999 0.872864C8.6624 0.872864 8.35303 1.16178 8.35303 1.53737V2.08631C8.29678 2.08631 8.24053 2.08631 8.18428 2.1152C4.92178 2.49079 2.4749 5.1777 2.4749 8.38466V14.2785C2.44678 14.5674 2.39053 14.7119 2.33428 14.7986L1.7999 15.7231C1.63115 16.012 1.63115 16.3587 1.7999 16.6476C1.96865 16.9076 2.2499 17.081 2.55928 17.081H8.38115V17.7166C8.38115 18.0633 8.6624 18.3811 9.02803 18.3811C9.36553 18.3811 9.6749 18.0922 9.6749 17.7166V17.081H15.4687C15.778 17.081 16.0593 16.9076 16.228 16.6476C16.3968 16.3587 16.3968 16.012 16.1999 15.7231ZM3.23428 15.7809L3.43115 15.4342C3.5999 15.1453 3.68428 14.7986 3.74053 14.3941V8.38466C3.74053 5.8422 5.70928 3.70423 8.3249 3.41532C9.92803 3.24197 11.503 3.73312 12.6562 4.77322C13.6687 5.69775 14.2312 6.94008 14.2312 8.26909V14.2785C14.2312 14.7119 14.3437 15.1164 14.5968 15.5209L14.7655 15.7809H3.23428Z" fill="#64748B"/>
</g>
<defs>
<clipPath id="clip0_52_4505">
<rect width="18" height="18.4906" fill="white" transform="translate(0 0.381714)"/>
</clipPath>
</defs>
</svg>
