<svg width="32" height="32" viewBox="0 0 32 32" fill="none" xmlns="http://www.w3.org/2000/svg">
<circle cx="15.5312" cy="15.5312" r="15.5312" fill="#30C1D7"/>
<mask id="path-2-inside-1_51_4278" fill="white">
<path d="M21.5351 10.9417C21.5078 11.0549 21.4955 11.1788 21.4457 11.279C21.3588 11.4533 21.2686 11.6361 21.145 11.7754C19.5537 13.5535 17.958 15.3269 16.3581 17.0957C16.2974 17.1612 16.2231 17.2092 16.1418 17.2354C15.4104 17.4668 14.6773 17.6908 13.9442 17.9167C13.664 18.0027 13.4915 17.8135 13.5684 17.5035C13.7701 16.6891 13.9723 15.8748 14.1801 15.062C14.2036 14.9717 14.2465 14.8891 14.305 14.8212C15.9013 13.0425 17.4995 11.2661 19.0996 9.49211C19.619 8.91702 20.3625 8.92158 20.8829 9.49211C20.9742 9.59231 21.0641 9.69372 21.1562 9.79422C21.3511 10.0095 21.4791 10.2633 21.5203 10.5679C21.5242 10.5826 21.53 10.5966 21.5375 10.6095L21.5351 10.9417ZM16.1399 16.459L20.0891 12.0721L18.829 10.6723L14.8793 15.0586C15.2961 15.5214 15.7184 15.9908 16.1399 16.459ZM19.247 10.1795L20.5341 11.6066C20.6276 11.4976 20.7419 11.378 20.8416 11.245C21.0368 10.9857 21.0428 10.5831 20.8457 10.3262C20.7073 10.1462 20.556 9.97886 20.3934 9.8258C20.1648 9.61143 19.8049 9.61963 19.5752 9.83309C19.4531 9.94756 19.3429 10.0766 19.247 10.1795ZM14.2069 17.2068L15.5949 16.779L14.5923 15.6644C14.4668 16.1633 14.3397 16.6746 14.2069 17.2068Z"/>
</mask>
<path d="M21.5351 10.9417C21.5078 11.0549 21.4955 11.1788 21.4457 11.279C21.3588 11.4533 21.2686 11.6361 21.145 11.7754C19.5537 13.5535 17.958 15.3269 16.3581 17.0957C16.2974 17.1612 16.2231 17.2092 16.1418 17.2354C15.4104 17.4668 14.6773 17.6908 13.9442 17.9167C13.664 18.0027 13.4915 17.8135 13.5684 17.5035C13.7701 16.6891 13.9723 15.8748 14.1801 15.062C14.2036 14.9717 14.2465 14.8891 14.305 14.8212C15.9013 13.0425 17.4995 11.2661 19.0996 9.49211C19.619 8.91702 20.3625 8.92158 20.8829 9.49211C20.9742 9.59231 21.0641 9.69372 21.1562 9.79422C21.3511 10.0095 21.4791 10.2633 21.5203 10.5679C21.5242 10.5826 21.53 10.5966 21.5375 10.6095L21.5351 10.9417ZM16.1399 16.459L20.0891 12.0721L18.829 10.6723L14.8793 15.0586C15.2961 15.5214 15.7184 15.9908 16.1399 16.459ZM19.247 10.1795L20.5341 11.6066C20.6276 11.4976 20.7419 11.378 20.8416 11.245C21.0368 10.9857 21.0428 10.5831 20.8457 10.3262C20.7073 10.1462 20.556 9.97886 20.3934 9.8258C20.1648 9.61143 19.8049 9.61963 19.5752 9.83309C19.4531 9.94756 19.3429 10.0766 19.247 10.1795ZM14.2069 17.2068L15.5949 16.779L14.5923 15.6644C14.4668 16.1633 14.3397 16.6746 14.2069 17.2068Z" fill="#D5DBE3"/>
<path d="M21.5351 10.9417L26.3955 12.1147L26.5307 11.5547L26.535 10.9787L21.5351 10.9417ZM21.4457 11.279L25.9201 13.5105L25.9241 13.5025L21.4457 11.279ZM21.145 11.7754L24.8708 15.1099L24.8787 15.1011L24.8865 15.0922L21.145 11.7754ZM16.3581 17.0957L20.0257 20.494L20.046 20.4721L20.0661 20.4499L16.3581 17.0957ZM16.1418 17.2354L17.6498 22.0026L17.663 21.9984L17.6762 21.9941L16.1418 17.2354ZM13.9442 17.9167L15.4103 22.697L15.4166 22.695L13.9442 17.9167ZM13.5684 17.5035L18.4216 18.7059L18.4217 18.7057L13.5684 17.5035ZM14.1801 15.062L9.34136 13.8023L9.33855 13.8131L9.33579 13.8239L14.1801 15.062ZM14.305 14.8212L10.5838 11.4816L10.5511 11.518L10.5191 11.5551L14.305 14.8212ZM19.0996 9.49211L15.3888 6.14098L15.3868 6.14324L19.0996 9.49211ZM20.8829 9.49211L24.5788 6.1246L24.5769 6.12245L20.8829 9.49211ZM21.1562 9.79422L24.8629 6.43855L24.8526 6.42717L24.8422 6.41585L21.1562 9.79422ZM21.5203 10.5679L16.5656 11.2394L16.6077 11.5499L16.6882 11.8527L21.5203 10.5679ZM21.5375 10.6095L26.5374 10.6465L26.5476 9.27519L25.8567 8.09057L21.5375 10.6095ZM16.1399 16.459L12.4239 19.8043L16.1399 23.9322L19.856 19.8043L16.1399 16.459ZM20.0891 12.0721L23.8052 15.4174L26.8167 12.0721L23.8052 8.7268L20.0891 12.0721ZM18.829 10.6723L22.5451 7.32705L18.8295 3.1997L15.1134 7.32654L18.829 10.6723ZM14.8793 15.0586L11.1637 11.7128L8.15032 15.0593L11.1643 18.4051L14.8793 15.0586ZM19.247 10.1795L15.5894 6.77037L12.4635 10.124L15.5341 13.5284L19.247 10.1795ZM20.5341 11.6066L16.8213 14.9554L20.6288 19.1769L24.3296 14.8616L20.5341 11.6066ZM20.8416 11.245L16.8467 8.23822L16.842 8.24451L20.8416 11.245ZM20.8457 10.3262L24.8127 7.28267L24.8086 7.27732L20.8457 10.3262ZM20.3934 9.8258L23.8203 6.1849L23.8142 6.1792L20.3934 9.8258ZM19.5752 9.83309L16.1708 6.17111L16.1638 6.17768L16.1568 6.18427L19.5752 9.83309ZM14.2069 17.2068L9.35568 15.9961L7.2094 24.5958L15.6796 21.985L14.2069 17.2068ZM15.5949 16.779L17.0676 21.5572L24.5449 19.2525L19.3123 13.4352L15.5949 16.779ZM14.5923 15.6644L18.3097 12.3206L12.0326 5.34207L9.74328 14.4449L14.5923 15.6644ZM16.6746 9.7686C16.6418 9.90487 16.6189 10.0211 16.6122 10.0551C16.5996 10.1185 16.6078 10.0763 16.6161 10.0388C16.627 9.98921 16.6548 9.86758 16.7039 9.7101C16.7537 9.55073 16.8355 9.32095 16.9673 9.05552L25.9241 13.5025C26.2224 12.9017 26.3416 12.373 26.3816 12.1917C26.3938 12.1361 26.4034 12.089 26.4095 12.0587C26.4126 12.0433 26.4153 12.0297 26.4172 12.0205C26.4197 12.0078 26.4197 12.0075 26.421 12.001C26.4258 11.9767 26.4148 12.0351 26.3955 12.1147L16.6746 9.7686ZM16.9713 9.04747C16.9446 9.10105 16.9395 9.11104 16.936 9.11792C16.9346 9.12057 16.9492 9.09201 16.9755 9.04643C17.0206 8.96804 17.1589 8.73455 17.4035 8.45862L24.8865 15.0922C25.5339 14.362 25.9113 13.5282 25.9201 13.5105L16.9713 9.04747ZM17.4193 8.44092C15.8338 10.2124 14.244 11.9793 12.65 13.7416L20.0661 20.4499C21.672 18.6746 23.2735 16.8946 24.8708 15.1099L17.4193 8.44092ZM12.6904 13.6974C13.1847 13.1639 13.8348 12.7258 14.6075 12.4766L17.6762 21.9941C18.6114 21.6926 19.41 21.1585 20.0257 20.494L12.6904 13.6974ZM14.6339 12.4682C13.9256 12.6922 13.2198 12.908 12.4718 13.1385L15.4166 22.695C16.1348 22.4737 16.8951 22.2413 17.6498 22.0026L14.6339 12.4682ZM12.4781 13.1365C13.5746 12.8002 15.7035 12.717 17.32 14.493C18.7799 16.0968 18.6144 17.9278 18.4216 18.7059L8.71509 16.301C8.44549 17.3892 8.32787 19.4698 9.92476 21.2242C11.6784 23.1508 14.0336 23.1192 15.4103 22.697L12.4781 13.1365ZM18.4217 18.7057C18.6234 17.8914 18.8217 17.0931 19.0244 16.3L9.33579 13.8239C9.123 14.6565 8.91676 15.4869 8.71504 16.3013L18.4217 18.7057ZM19.0188 16.3216C18.8577 16.9406 18.5529 17.5517 18.0909 18.0872L10.5191 11.5551C9.94 12.2264 9.5495 13.0028 9.34136 13.8023L19.0188 16.3216ZM18.0262 18.1608C19.6197 16.3852 21.2151 14.6119 22.8125 12.841L15.3868 6.14324C13.7839 7.92036 12.1829 9.69981 10.5838 11.4816L18.0262 18.1608ZM22.8104 12.8432C22.2482 13.4658 21.2643 14.0648 19.9818 14.0625C18.7071 14.0602 17.7394 13.4652 17.1889 12.8618L24.5769 6.12245C23.506 4.94847 21.9063 4.06595 19.9999 4.06251C18.0857 4.05906 16.4704 4.94337 15.3889 6.14098L22.8104 12.8432ZM17.187 12.8596C17.2201 12.896 17.2535 12.9331 17.3032 12.9883C17.3486 13.0387 17.4075 13.1041 17.4702 13.1726L24.8422 6.41585C24.7018 6.26262 24.7854 6.35128 24.5788 6.1246L17.187 12.8596ZM17.4496 13.1499C17.0212 12.6768 16.6704 12.0121 16.5656 11.2394L26.475 9.89638C26.2878 8.51454 25.681 7.34224 24.8629 6.43855L17.4496 13.1499ZM16.6882 11.8527C16.8046 12.2904 16.9806 12.7206 17.2184 13.1284L25.8567 8.09057C26.0795 8.47263 26.2439 8.8748 26.3524 9.28311L16.6882 11.8527ZM16.5377 10.5725L16.5352 10.9046L26.535 10.9787L26.5374 10.6465L16.5377 10.5725ZM19.856 19.8043L23.8052 15.4174L16.3731 8.7268L12.4239 13.1137L19.856 19.8043ZM23.8052 8.7268L22.5451 7.32705L15.113 14.0176L16.3731 15.4174L23.8052 8.7268ZM15.1134 7.32654L11.1637 11.7128L18.5949 18.4044L22.5446 14.0181L15.1134 7.32654ZM11.1643 18.4051C11.5805 18.8672 12.0008 19.3344 12.4239 19.8043L19.856 13.1137C19.436 12.6472 19.0117 12.1756 18.5943 11.7121L11.1643 18.4051ZM15.5341 13.5284L16.8213 14.9554L24.247 8.2578L22.9598 6.83072L15.5341 13.5284ZM24.3296 14.8616C24.3227 14.8695 24.3228 14.8692 24.3463 14.8428C24.3617 14.8254 24.4053 14.7765 24.4458 14.7302C24.5303 14.6338 24.6796 14.461 24.8413 14.2455L16.842 8.24451C16.8753 8.20005 16.9012 8.16821 16.9147 8.15202C16.9278 8.1362 16.9335 8.12984 16.9252 8.13935C16.9212 8.14388 16.9154 8.1505 16.9057 8.16137C16.9009 8.16679 16.8958 8.17256 16.8895 8.17962C16.8837 8.18616 16.8762 8.19464 16.8689 8.20288C16.8415 8.23371 16.7922 8.28922 16.7387 8.35167L24.3296 14.8616ZM24.8365 14.2517C26.3198 12.281 26.4387 9.40206 24.8127 7.28267L16.8787 13.3697C16.2023 12.4881 15.985 11.5242 15.9909 10.7464C15.9969 9.96907 16.2263 9.06252 16.8467 8.23822L24.8365 14.2517ZM24.8086 7.27732C24.5103 6.88959 24.1803 6.52378 23.8203 6.1849L16.9664 13.4667C16.9316 13.4339 16.9042 13.4028 16.8829 13.3751L24.8086 7.27732ZM23.8142 6.1792C21.5668 4.07093 18.2221 4.26414 16.1708 6.17111L22.9796 13.4951C21.3876 14.9751 18.7629 15.1519 16.9725 13.4724L23.8142 6.1792ZM16.1568 6.18427C15.9663 6.36269 15.814 6.52519 15.7254 6.62124C15.6811 6.66929 15.6388 6.71598 15.6183 6.73864C15.591 6.76867 15.5874 6.77259 15.5894 6.77037L22.9045 13.5887C22.931 13.5602 22.9549 13.5343 22.9743 13.513C22.9935 13.492 23.0116 13.4721 23.0248 13.4575C23.0557 13.4234 23.0666 13.4114 23.0771 13.4C23.0854 13.3911 23.0811 13.3959 23.0689 13.4084C23.0566 13.4211 23.0308 13.4472 22.9937 13.4819L16.1568 6.18427ZM15.6796 21.985L17.0676 21.5572L14.1221 12.0008L12.7341 12.4287L15.6796 21.985ZM19.3123 13.4352L18.3097 12.3206L10.8749 19.0082L11.8775 20.1228L19.3123 13.4352ZM9.74328 14.4449C9.61635 14.9496 9.48697 15.47 9.35568 15.9961L19.0581 18.4176C19.1925 17.8791 19.3173 17.3769 19.4413 16.8839L9.74328 14.4449Z" fill="white" mask="url(#path-2-inside-1_51_4278)"/>
<path d="M21.236 16.5091L21.236 16.5014L21.2436 16.5007M21.236 16.5091L21.2436 16.5007M21.236 16.5091L21.2357 16.5347L21.2357 16.5353L21.2342 16.6828L21.2142 18.7087C21.3197 18.7097 21.4271 18.7028 21.5351 18.6876C21.5387 18.2428 21.5375 17.7978 21.5363 17.3529C21.5357 17.1295 21.5351 16.9061 21.5351 16.6828C21.5351 16.6672 21.5352 16.6515 21.5353 16.6358C21.5356 16.6027 21.5359 16.5693 21.535 16.536C21.5349 16.5356 21.5349 16.5351 21.5349 16.5347C21.5344 16.5149 21.5334 16.4951 21.5317 16.4754M21.236 16.5091L21.2361 16.5002L21.2389 16.2088M21.236 16.5091L21.2436 16.5007M21.236 16.5091L21.5317 16.4754M21.2436 16.5007L21.2447 16.4994L21.2436 16.5007ZM21.2436 16.5007L21.5317 16.4754M21.2389 16.2088C21.3129 16.2101 21.3838 16.238 21.4379 16.2873C21.492 16.3365 21.5254 16.4036 21.5317 16.4754M21.2389 16.2088C21.0624 16.2071 20.937 16.3345 20.9332 16.5255L21.2339 16.5003L21.2389 16.2088Z" fill="#D5DBE3" stroke="white" stroke-width="5"/>
</svg>
