<svg width="31" height="31" viewBox="0 0 31 31" fill="none" xmlns="http://www.w3.org/2000/svg">
<path d="M15.5 0C11.3891 0 7.44666 1.63303 4.53984 4.53984C1.63303 7.44666 0 11.3891 0 15.5C0 19.6109 1.63303 23.5533 4.53984 26.4602C7.44666 29.367 11.3891 31 15.5 31C19.6109 31 23.5533 29.367 26.4602 26.4602C29.367 23.5533 31 19.6109 31 15.5C31 11.3891 29.367 7.44666 26.4602 4.53984C23.5533 1.63303 19.6109 0 15.5 0Z" fill="#039BE5"/>
<path d="M17.5982 19.6082H21.6094L22.2392 15.5334H17.5974V13.3063C17.5974 11.6135 18.1505 10.1124 19.7339 10.1124H22.2784V6.55642C21.8313 6.49605 20.8858 6.36389 19.0993 6.36389C15.3687 6.36389 13.1815 8.33402 13.1815 12.8225V15.5334H9.3465V19.6082H13.1815V30.8082C13.941 30.9224 14.7103 30.9999 15.5 30.9999C16.2138 30.9999 16.9105 30.9347 17.5982 30.8417V19.6082Z" fill="white"/>
</svg>
