<svg width="27" height="27" viewBox="0 0 27 27" fill="none" xmlns="http://www.w3.org/2000/svg">
<path d="M13.1686 0C5.89297 0 0 5.89297 0 13.1686C0 20.4443 5.89297 26.3373 13.1686 26.3373C20.4443 26.3373 26.3373 20.4443 26.3373 13.1686C26.3373 5.89297 20.4443 0 13.1686 0ZM13.1686 3.29216C14.2551 3.29216 15.2756 3.58846 16.2633 3.91767C15.5719 4.57611 14.7818 5.16869 14.9135 5.76128C15.0452 6.35387 17.1851 6.18926 17.1851 7.40736C17.1851 8.29625 15.8024 8.55962 16.7571 9.58019C17.9094 10.7324 14.6501 12.8065 14.5843 14.3209C14.4855 17.0534 17.3497 17.5143 19.6213 17.5143C21.004 17.5143 21.3661 18.1727 21.2674 18.9629C19.4896 21.4978 16.4608 23.0781 13.1357 23.0781C11.8847 23.0781 10.7324 22.7818 9.64603 22.3538C10.3703 20.9052 8.72423 18.041 7.17691 17.1192C6.41972 16.362 4.80656 16.6583 3.88475 16.2962C3.58846 15.4073 3.29216 14.5184 3.25924 13.5308C3.35801 13.3662 3.52261 13.2345 3.78599 13.2345C4.4115 13.2345 5.26746 14.4855 5.72836 14.3538C6.32095 14.2221 3.29216 10.0411 4.70779 9.21805C5.36622 8.82299 6.68309 10.502 6.25511 8.69131C5.86005 7.01231 7.44029 7.7695 8.42793 7.34152C9.2839 6.97938 9.90941 5.99173 8.85592 5.39915C8.65839 5.30038 8.42794 5.06993 8.13164 4.77363C9.61311 3.88475 11.325 3.32508 13.1686 3.32508V3.29216ZM20.7735 6.88062C21.3661 7.60489 21.827 8.39501 22.2221 9.25097V9.34974C22.0904 9.58019 21.86 9.71188 21.4978 10.074C20.576 10.9958 20.4443 9.38266 20.0493 9.05345C19.6213 8.65839 18.074 9.11929 17.8764 8.62546C17.646 8.03287 19.5225 7.24276 20.7735 6.88062Z" fill="#64748B"/>
</svg>
