<svg width="26" height="26" viewBox="0 0 26 26" fill="none" xmlns="http://www.w3.org/2000/svg">
<path d="M20.2352 25.9863L5.80897 26C2.63519 26.0029 0.0362959 23.4091 0.0326893 20.2353L0.0189843 5.80903C0.0160991 2.63525 2.60994 0.0363569 5.78372 0.0327504L20.21 0.0190454C23.3838 0.0161601 25.9827 2.61 25.9863 5.78378L26 20.2101C26.0036 23.3846 23.409 25.9834 20.2352 25.9863Z" fill="url(#paint0_radial_81_205)"/>
<path d="M20.2352 25.9863L5.80897 26C2.63519 26.0029 0.0362959 23.4091 0.0326893 20.2353L0.0189843 5.80903C0.0160991 2.63525 2.60994 0.0363569 5.78372 0.0327504L20.21 0.0190454C23.3838 0.0161601 25.9827 2.61 25.9863 5.78378L26 20.2101C26.0036 23.3846 23.409 25.9834 20.2352 25.9863Z" fill="url(#paint1_radial_81_205)"/>
<path d="M13.0098 18.0591C10.2263 18.0591 7.96063 15.7942 7.96063 13.0099C7.96063 10.2256 10.2263 7.96069 13.0098 7.96069C15.7934 7.96069 18.059 10.2256 18.059 13.0099C18.059 15.7942 15.7934 18.0591 13.0098 18.0591ZM13.0098 9.40332C11.0212 9.40332 9.40326 11.0212 9.40326 13.0099C9.40326 14.9985 11.0212 16.6165 13.0098 16.6165C14.9985 16.6165 16.6164 14.9985 16.6164 13.0099C16.6164 11.0212 14.9985 9.40332 13.0098 9.40332Z" fill="white"/>
<path d="M18.4197 8.68201C19.0173 8.68201 19.5017 8.19759 19.5017 7.60004C19.5017 7.00248 19.0173 6.51807 18.4197 6.51807C17.8222 6.51807 17.3377 7.00248 17.3377 7.60004C17.3377 8.19759 17.8222 8.68201 18.4197 8.68201Z" fill="white"/>
<path d="M17.3377 22.387H8.68195C5.8984 22.387 3.63275 20.122 3.63275 17.3378V8.68201C3.63275 5.89774 5.8984 3.63281 8.68195 3.63281H17.3377C20.1213 3.63281 22.3869 5.89774 22.3869 8.68201V17.3378C22.3869 20.122 20.1213 22.387 17.3377 22.387ZM8.68195 5.07544C6.69328 5.07544 5.07538 6.69335 5.07538 8.68201V17.3378C5.07538 19.3264 6.69328 20.9443 8.68195 20.9443H17.3377C19.3264 20.9443 20.9443 19.3264 20.9443 17.3378V8.68201C20.9443 6.69335 19.3264 5.07544 17.3377 5.07544H8.68195Z" fill="white"/>
<defs>
<radialGradient id="paint0_radial_81_205" cx="0" cy="0" r="1" gradientUnits="userSpaceOnUse" gradientTransform="translate(9.67737 26.0188) scale(32.3863)">
<stop stop-color="#FFDD55"/>
<stop offset="0.328" stop-color="#FF543F"/>
<stop offset="0.348" stop-color="#FC5245"/>
<stop offset="0.504" stop-color="#E64771"/>
<stop offset="0.643" stop-color="#D53E91"/>
<stop offset="0.761" stop-color="#CC39A4"/>
<stop offset="0.841" stop-color="#C837AB"/>
</radialGradient>
<radialGradient id="paint1_radial_81_205" cx="0" cy="0" r="1" gradientUnits="userSpaceOnUse" gradientTransform="translate(4.19972 -0.305328) scale(21.5045 14.3285)">
<stop stop-color="#4168C9"/>
<stop offset="0.999" stop-color="#4168C9" stop-opacity="0"/>
</radialGradient>
</defs>
</svg>
