<svg width="10" height="16" viewBox="0 0 10 16" fill="none" xmlns="http://www.w3.org/2000/svg">
<path d="M5.00899 15.2216C2.70073 12.3778 0.734682 9.60315 0.106192 6.12133C-0.289103 3.94105 0.413326 2.08496 2.31207 0.853578C4.08758 -0.299128 5.94556 -0.27543 7.73055 0.87064C9.51554 2.01671 10.3384 4.1003 9.87102 6.31471C9.16479 9.66951 7.27459 12.3825 5.00899 15.2216ZM4.91988 14.1201C6.84327 12.1512 8.64816 8.87987 9.19229 6.46923C9.66626 4.38374 9.05863 2.57411 7.52295 1.47828C6.79815 0.96379 5.93343 0.683084 5.04464 0.673766C4.15585 0.664448 3.28544 0.926961 2.55001 1.42614C1.0039 2.4831 0.334649 4.33255 0.794404 6.3915C1.4447 9.30644 3.03346 11.7218 4.91988 14.1201Z" fill="black"/>
<path d="M5.00047 7.61247C6.33968 7.61247 7.42533 6.52682 7.42533 5.18761C7.42533 3.8484 6.33968 2.76276 5.00047 2.76276C3.66126 2.76276 2.57562 3.8484 2.57562 5.18761C2.57562 6.52682 3.66126 7.61247 5.00047 7.61247Z" stroke="black" stroke-miterlimit="10"/>
</svg>
