<svg width="18" height="19" viewBox="0 0 18 19" fill="none" xmlns="http://www.w3.org/2000/svg">
<path d="M10.9688 2.02689H7.03135C3.43135 2.02689 0.506348 4.94493 0.506348 8.52748C0.506348 12.11 2.75635 14.6236 8.26885 17.166C8.40947 17.2238 8.52197 17.2527 8.6626 17.2527C8.85947 17.2527 9.02822 17.1949 9.19697 17.0794C9.47822 16.906 9.64697 16.5882 9.64697 16.2415V14.9992H10.9688C14.5688 14.9992 17.522 12.0811 17.522 8.49858C17.522 4.91604 14.5688 2.02689 10.9688 2.02689ZM10.9688 13.7568H9.3376C8.80322 13.7568 8.35322 14.2191 8.35322 14.768V15.837C3.6001 13.5835 1.74385 11.5033 1.74385 8.55637C1.74385 5.69611 4.10635 3.3559 7.03135 3.3559H10.9688C13.8657 3.3559 16.2563 5.69611 16.2563 8.55637C16.2563 11.4166 13.8657 13.7568 10.9688 13.7568Z" fill="#64748B"/>
<path d="M5.42812 7.89188C5.0625 7.89188 4.78125 8.18079 4.78125 8.55638C4.78125 8.93197 5.0625 9.22089 5.42812 9.22089C5.79375 9.22089 6.075 8.93197 6.075 8.55638C6.075 8.18079 5.79375 7.89188 5.42812 7.89188Z" fill="#64748B"/>
<path d="M9.00015 7.89188C8.63452 7.89188 8.35327 8.18079 8.35327 8.55638C8.35327 8.93197 8.63452 9.22089 9.00015 9.22089C9.33765 9.22089 9.64702 8.93197 9.64702 8.55638C9.64702 8.18079 9.33765 7.89188 9.00015 7.89188Z" fill="#64748B"/>
<path d="M12.5719 7.89188C12.2063 7.89188 11.925 8.18079 11.925 8.55638C11.925 8.93197 12.2063 9.22089 12.5719 9.22089C12.9375 9.22089 13.2188 8.93197 13.2188 8.55638C13.2188 8.18079 12.9094 7.89188 12.5719 7.89188Z" fill="#64748B"/>
</svg>
