<svg width="20" height="21" viewBox="0 0 20 21" fill="none" xmlns="http://www.w3.org/2000/svg">
<path fill-rule="evenodd" clip-rule="evenodd" d="M9.16663 3.7785C5.94496 3.7785 3.33329 6.46135 3.33329 9.77081C3.33329 13.0803 5.94496 15.7631 9.16663 15.7631C12.3883 15.7631 15 13.0803 15 9.77081C15 6.46135 12.3883 3.7785 9.16663 3.7785ZM1.66663 9.77081C1.66663 5.51578 5.02449 2.06641 9.16663 2.06641C13.3088 2.06641 16.6666 5.51578 16.6666 9.77081C16.6666 14.0258 13.3088 17.4752 9.16663 17.4752C5.02449 17.4752 1.66663 14.0258 1.66663 9.77081Z" fill="white"/>
<path fill-rule="evenodd" clip-rule="evenodd" d="M13.2857 14.0021C13.6111 13.6678 14.1388 13.6678 14.4642 14.0021L18.0892 17.7259C18.4147 18.0602 18.4147 18.6023 18.0892 18.9366C17.7638 19.2709 17.2361 19.2709 16.9107 18.9366L13.2857 15.2128C12.9603 14.8785 12.9603 14.3364 13.2857 14.0021Z" fill="#637381"/>
</svg>
