<svg width="34" height="24" viewBox="0 0 34 24" fill="none" xmlns="http://www.w3.org/2000/svg">
<path d="M32.759 19.92C32.4298 21.6 31.031 22.8802 29.303 23.1203C26.5872 23.52 22.061 24 16.9587 24C11.939 24 7.41275 23.52 4.6145 23.1203C2.8865 22.8802 1.487 21.6 1.1585 19.92C0.82925 18.0803 0.5 15.36 0.5 12C0.5 8.64 0.82925 5.91975 1.1585 4.08C1.48775 2.4 2.8865 1.11975 4.6145 0.87975C7.33025 0.48 11.8565 0 16.9587 0C22.061 0 26.5047 0.48 29.303 0.87975C31.031 1.11975 32.4305 2.4 32.759 4.08C33.0882 5.91975 33.5 8.64 33.5 12C33.4175 15.36 33.0882 18.0803 32.759 19.92Z" fill="url(#paint0_linear_81_207)"/>
<path opacity="0.05" d="M23.264 10.83L14.687 5.11205C14.2543 4.8233 13.7015 4.7963 13.2432 5.0423C12.785 5.28755 12.5 5.7623 12.5 6.28205V17.718C12.5 18.2378 12.785 18.7133 13.2432 18.9585C13.4517 19.0703 13.679 19.125 13.9062 19.125C14.1793 19.125 14.4508 19.0455 14.6863 18.8888L23.2633 13.1708C23.6555 12.909 23.8895 12.4718 23.8895 12.0008C23.8903 11.529 23.6555 11.0918 23.264 10.83Z" fill="black"/>
<path opacity="0.07" d="M14.5107 5.42784L22.6033 10.8233C23.12 11.1946 23.468 11.5268 23.468 11.9581C23.468 12.3893 23.3 12.6901 22.9318 12.9586C22.6535 13.1611 14.648 18.4816 14.648 18.4816C13.9723 18.9346 12.875 18.8386 12.875 17.3573V6.55808C12.875 5.05433 14.063 5.12934 14.5107 5.42784Z" fill="black"/>
<path d="M13.25 17.6759V6.32462C13.25 5.76737 13.871 5.43437 14.3353 5.74412L22.8492 11.4201C23.264 11.6961 23.264 12.3051 22.8492 12.5819L14.3353 18.2579C13.871 18.5661 13.25 18.2339 13.25 17.6759Z" fill="white"/>
<defs>
<linearGradient id="paint0_linear_81_207" x1="6.362" y1="1.40325" x2="29.9345" y2="24.9758" gradientUnits="userSpaceOnUse">
<stop stop-color="#F44F5A"/>
<stop offset="0.443" stop-color="#EE3D4A"/>
<stop offset="1" stop-color="#E52030"/>
</linearGradient>
</defs>
</svg>
